<svg width="232" height="200" viewBox="0 0 232 200" fill="none" xmlns="http://www.w3.org/2000/svg">
<g clip-path="url(#clip0_1_68)" filter="url(#filter0_d_1_68)">
<path d="M118.885 45.5777H117.876V16.7086C117.876 12.2772 116.188 8.02728 113.184 4.89381C110.179 1.76035 106.104 -1.52566e-05 101.855 -1.52566e-05H43.2075C41.1036 -5.06958e-05 39.0202 0.432094 37.0765 1.27175C35.1327 2.1114 33.3665 3.34211 31.8788 4.89362C30.3911 6.44513 29.2109 8.28705 28.4058 10.3142C27.6006 12.3414 27.1862 14.5141 27.1861 16.7083V175.087C27.1861 177.281 27.6005 179.454 28.4057 181.481C29.2108 183.508 30.3909 185.35 31.8786 186.901C33.3663 188.453 35.1324 189.684 37.0762 190.523C39.02 191.363 41.1033 191.795 43.2072 191.795H101.854C106.103 191.795 110.179 190.035 113.183 186.901C116.188 183.768 117.876 179.518 117.876 175.087V66.1272H118.885L118.885 45.5777Z" fill="#3F3D56"/>
<path d="M114.609 15.5894V176.205C114.608 179.565 113.329 182.787 111.051 185.163C108.773 187.539 105.684 188.875 102.462 188.876H42.6113C39.3885 188.876 36.2974 187.542 34.018 185.166C31.7386 182.789 30.4576 179.566 30.4566 176.205V15.5894C30.4576 12.2284 31.7386 9.00544 34.0179 6.62935C36.2971 4.25326 39.3881 2.91867 42.6108 2.9191H49.871C49.5146 3.83339 49.3789 4.82501 49.4759 5.8068C49.573 6.78859 49.8998 7.7305 50.4276 8.54972C50.9554 9.36894 51.6681 10.0404 52.5031 10.5051C53.338 10.9698 54.2696 11.2134 55.216 11.2147H89.338C90.2844 11.2134 91.216 10.9698 92.0509 10.5051C92.8859 10.0404 93.5986 9.36894 94.1264 8.54972C94.6542 7.7305 94.981 6.78859 95.0781 5.8068C95.1751 4.82501 95.0394 3.83339 94.683 2.9191H102.46C105.682 2.91967 108.771 4.25443 111.049 6.62993C113.327 9.00543 114.608 12.2272 114.609 15.587V15.5894Z" fill="white"/>
<path d="M100.715 154.419H45.441C43.4531 154.416 41.5472 153.592 40.1415 152.126C38.7358 150.659 37.9451 148.672 37.9428 146.599V65.5035C37.9428 45.8138 53.3023 29.795 72.1819 29.795H100.715C102.703 29.7973 104.609 30.622 106.015 32.088C107.42 33.554 108.211 35.5416 108.213 37.6148V146.599C108.211 148.672 107.42 150.659 106.015 152.126C104.609 153.592 102.703 154.416 100.715 154.419Z" fill="#E6E6E6"/>
<path d="M42.13 173.939C44.3278 173.939 46.1094 172.081 46.1094 169.789C46.1094 167.497 44.3278 165.639 42.13 165.639C39.9323 165.639 38.1507 167.497 38.1507 169.789C38.1507 172.081 39.9323 173.939 42.13 173.939Z" fill="#E6E6E6"/>
<path d="M104.104 173.939C106.302 173.939 108.084 172.081 108.084 169.789C108.084 167.497 106.302 165.639 104.104 165.639C101.907 165.639 100.125 167.497 100.125 169.789C100.125 172.081 101.907 173.939 104.104 173.939Z" fill="#E6E6E6"/>
<path d="M104.644 154.259L102.177 157.063L90.6338 148.474L94.2748 144.335L104.644 154.259Z" fill="#FFB6B6"/>
<path d="M107.879 156.038L99.9247 165.078L99.815 164.973C98.9203 164.117 98.3883 162.925 98.3361 161.659C98.284 160.394 98.7159 159.159 99.5369 158.225L99.5371 158.225L99.7887 155.424L103.701 153.493L104.395 152.704L107.879 156.038Z" fill="#2F2E41"/>
<path d="M106.257 185.547L102.608 185.546L100.872 170.869L106.257 170.87L106.257 185.547Z" fill="#FFB6B6"/>
<path d="M107.187 189.235L95.4226 189.235V189.08C95.4227 187.813 95.9052 186.598 96.7639 185.703C97.6226 184.807 98.7873 184.304 100.002 184.304H100.002L102.151 182.604L106.16 184.304L107.187 184.304L107.187 189.235Z" fill="#2F2E41"/>
<path d="M88.6373 111.454C88.6373 111.454 66.3483 133.898 80.439 140.845H84.7942C84.7942 140.845 86.103 135.996 89.0992 131.906C89.5107 131.345 91.0522 131.459 91.4803 130.911C94.0941 127.57 96.9278 124.7 98.8849 124.814L100.166 140.31L99.5338 144.852C99.136 147.712 99.2407 150.623 99.8429 153.443L99.3973 171.571L107.212 171.576C107.212 171.576 107.528 167.327 107.792 162.014C107.863 160.59 108.45 159.598 108.506 158.083C108.641 154.45 108.194 150.222 108.108 147.257L114 114.66L88.6373 111.454Z" fill="#2F2E41"/>
<path d="M98.9321 63.9007L95.2977 68.9711L86.5871 74.3143L91.7106 88.208L91.9049 98.5455L91.4281 99.7925L91.9667 101.835C91.9667 101.835 91.7182 104.225 90.393 105.999C88.0762 109.102 84.5384 112.474 88.1239 113.324C93.7602 114.66 113.743 117.599 114.768 115.194C115.123 114.363 115.078 110.845 114.869 106.6C114.83 105.806 113.989 104.942 113.94 104.11C113.903 103.486 114.66 102.899 114.619 102.266C114.162 95.2102 113.487 87.9411 113.487 87.9411L115.493 68.4884L107.471 66.3295L106.571 63.9352L98.9321 63.9007Z" fill="#63E9FF"/>
<path d="M79.3688 139.512L80.5602 141.082C80.5602 141.082 91.5172 149.076 91.8935 149.823L93.6251 151.532L97.815 146.861L95.6361 144.013C93.8924 141.734 91.6395 139.935 89.0747 138.774L85.7354 135.684L79.3688 139.512Z" fill="#2F2E41"/>
<path d="M86.331 117.073L88.3264 96.9308L88.853 88.6409L83.2682 87.5877C83.2682 87.5877 82.4319 93.2866 81.7002 96.631C80.9783 99.9312 82.6621 116.631 82.7067 117.071C82.2965 117.454 82.0074 117.957 81.8775 118.515C81.7476 119.072 81.7831 119.658 81.9793 120.194C82.1755 120.73 82.5231 121.192 82.9762 121.517C83.4292 121.843 83.9664 122.017 84.5166 122.017C85.0668 122.018 85.6041 121.844 86.0575 121.519C86.5109 121.194 86.8589 120.733 87.0556 120.197C87.2522 119.661 87.2883 119.075 87.1589 118.517C87.0295 117.96 86.7408 117.456 86.331 117.073Z" fill="#FFB9B9"/>
<path d="M79.1153 100.315L88.7563 102.867L88.6894 100.045L89.4211 99.2352L90.8831 91.248L92.9806 86.5692L92.4354 70.5692L87.1079 73.516L87.1014 73.5212C86.1711 74.5885 85.393 75.7901 84.7912 77.0888C82.7828 81.3468 80.8535 90.7258 79.8436 96.1732C79.8089 96.2875 79.742 96.3881 79.6515 96.462C79.1505 96.9416 78.8236 97.5869 78.7259 98.2888C78.6282 98.9907 78.7657 99.7062 79.1153 100.315Z" fill="#63E9FF"/>
<path d="M136.369 105.457C136.369 105.457 124.632 92.5521 124.522 92.3089C123.702 85.8157 121.344 82.9515 120.991 83.2624L114.904 85.4614C114.904 85.4614 116.715 91.4402 117.94 94.9914C119.112 98.3848 132.61 106.673 132.835 107.082C132.594 107.639 132.52 108.26 132.623 108.862C132.727 109.463 133.003 110.018 133.415 110.452C133.828 110.887 134.357 111.181 134.933 111.294C135.509 111.408 136.105 111.337 136.641 111.091C137.177 110.844 137.629 110.433 137.937 109.913C138.245 109.392 138.393 108.787 138.364 108.176C138.334 107.565 138.128 106.979 137.772 106.493C137.415 106.008 136.926 105.646 136.369 105.457Z" fill="#FFB9B9"/>
<path d="M109.99 68.9324C109.99 68.9324 115.964 65.8787 118.282 71.8764C119.552 75.2623 122.801 83.48 124.42 88.5385C124.431 88.5707 124.446 88.6012 124.464 88.6293C124.897 89.3003 125.131 90.0897 125.136 90.8986C125.135 90.9575 125.141 91.0163 125.154 91.0738C125.154 91.0738 118.588 92.4077 116.635 95.9968L115.861 95.1202L115.723 94.506L110.059 78.7432L109.99 68.9324Z" fill="#63E9FF"/>
<path d="M207.558 93.4112H137.61C136.987 93.4104 136.389 93.1519 135.949 92.6922C135.508 92.2326 135.26 91.6095 135.259 90.9594V80.2753C135.26 79.6253 135.508 79.0022 135.949 78.5426C136.389 78.0829 136.987 77.8244 137.61 77.8236H207.558C208.182 77.8244 208.779 78.0829 209.22 78.5426C209.661 79.0022 209.908 79.6253 209.909 80.2753V90.9594C209.908 91.6095 209.661 92.2326 209.22 92.6922C208.779 93.1519 208.182 93.4104 207.558 93.4112Z" fill="#E6E6E6"/>
<path d="M200.762 91.7575H139.196C138.573 91.7567 137.975 91.4982 137.535 91.0385C137.094 90.5789 136.846 89.9558 136.845 89.3057V81.9304C136.846 81.2804 137.094 80.6572 137.535 80.1976C137.975 79.738 138.573 79.4794 139.196 79.4787H205.973C206.596 79.4794 207.193 79.738 207.634 80.1976C208.075 80.6572 208.323 81.2804 208.324 81.9304V83.8715C208.321 85.9623 207.524 87.9667 206.106 89.4451C204.689 90.9235 202.767 91.7551 200.762 91.7575Z" fill="white"/>
<path d="M179.525 84.8574H151.411C151.251 84.8574 151.096 84.7907 150.983 84.6722C150.869 84.5536 150.805 84.3928 150.805 84.2251C150.805 84.0574 150.869 83.8966 150.983 83.778C151.096 83.6594 151.251 83.5928 151.411 83.5928H179.525C179.686 83.5928 179.84 83.6594 179.954 83.778C180.068 83.8966 180.132 84.0574 180.132 84.2251C180.132 84.3928 180.068 84.5536 179.954 84.6722C179.84 84.7907 179.686 84.8574 179.525 84.8574Z" fill="#63E9FF"/>
<path d="M193.757 87.4435H151.411C151.251 87.4435 151.096 87.3769 150.983 87.2583C150.869 87.1397 150.805 86.9789 150.805 86.8112C150.805 86.6435 150.869 86.4827 150.983 86.3641C151.096 86.2455 151.251 86.1789 151.411 86.1789H193.757C193.918 86.1789 194.072 86.2455 194.186 86.3641C194.299 86.4827 194.363 86.6435 194.363 86.8112C194.363 86.9789 194.299 87.1397 194.186 87.2583C194.072 87.3769 193.918 87.4435 193.757 87.4435Z" fill="#E6E6E6"/>
<path d="M207.558 116.08H137.61C136.987 116.079 136.389 115.82 135.949 115.361C135.508 114.901 135.26 114.278 135.259 113.628V102.944C135.26 102.294 135.508 101.671 135.949 101.211C136.389 100.751 136.987 100.493 137.61 100.492H207.558C208.182 100.493 208.779 100.751 209.22 101.211C209.661 101.671 209.908 102.294 209.909 102.944V113.628C209.908 114.278 209.661 114.901 209.22 115.361C208.779 115.82 208.182 116.079 207.558 116.08Z" fill="#E6E6E6"/>
<path d="M200.762 114.426H139.196C138.573 114.425 137.975 114.167 137.535 113.707C137.094 113.247 136.846 112.624 136.845 111.974V104.599C136.846 103.949 137.094 103.326 137.535 102.866C137.975 102.406 138.573 102.148 139.196 102.147H205.973C206.596 102.148 207.193 102.406 207.634 102.866C208.075 103.326 208.323 103.949 208.324 104.599V106.54C208.321 108.631 207.524 110.635 206.106 112.114C204.689 113.592 202.767 114.424 200.762 114.426Z" fill="white"/>
<path d="M179.525 107.526H151.411C151.332 107.526 151.253 107.51 151.179 107.478C151.106 107.446 151.039 107.399 150.983 107.341C150.926 107.282 150.882 107.212 150.851 107.136C150.821 107.059 150.805 106.977 150.805 106.894C150.805 106.811 150.821 106.728 150.851 106.652C150.882 106.575 150.926 106.505 150.983 106.446C151.039 106.388 151.106 106.341 151.179 106.309C151.253 106.278 151.332 106.261 151.411 106.261H179.525C179.686 106.261 179.84 106.328 179.954 106.446C180.068 106.565 180.132 106.726 180.132 106.894C180.132 107.061 180.068 107.222 179.954 107.341C179.84 107.459 179.686 107.526 179.525 107.526Z" fill="#63E9FF"/>
<path d="M193.757 110.112H151.411C151.332 110.112 151.253 110.096 151.179 110.064C151.106 110.032 151.039 109.985 150.983 109.927C150.926 109.868 150.882 109.798 150.851 109.722C150.821 109.645 150.805 109.563 150.805 109.48C150.805 109.397 150.821 109.314 150.851 109.238C150.882 109.161 150.926 109.091 150.983 109.033C151.039 108.974 151.106 108.927 151.179 108.896C151.253 108.864 151.332 108.847 151.411 108.847H193.757C193.918 108.847 194.072 108.914 194.186 109.033C194.299 109.151 194.363 109.312 194.363 109.48C194.363 109.647 194.299 109.808 194.186 109.927C194.072 110.045 193.918 110.112 193.757 110.112Z" fill="#E6E6E6"/>
<path d="M207.558 138.748H137.61C136.987 138.747 136.389 138.489 135.949 138.029C135.508 137.57 135.26 136.946 135.259 136.296V125.612C135.26 124.962 135.508 124.339 135.949 123.88C136.389 123.42 136.987 123.161 137.61 123.161H207.558C208.182 123.161 208.779 123.42 209.22 123.88C209.661 124.339 209.908 124.962 209.909 125.612V136.296C209.908 136.946 209.661 137.57 209.22 138.029C208.779 138.489 208.182 138.747 207.558 138.748Z" fill="#E6E6E6"/>
<path d="M200.762 137.094H139.196C138.573 137.094 137.975 136.835 137.535 136.376C137.094 135.916 136.846 135.293 136.845 134.643V127.267C136.846 126.617 137.094 125.994 137.535 125.535C137.975 125.075 138.573 124.816 139.196 124.816H205.973C206.596 124.816 207.193 125.075 207.634 125.535C208.075 125.994 208.323 126.617 208.324 127.267V129.208C208.321 131.299 207.524 133.304 206.106 134.782C204.689 136.261 202.767 137.092 200.762 137.094Z" fill="white"/>
<path d="M179.525 130.194H151.411C151.251 130.194 151.096 130.128 150.983 130.009C150.869 129.891 150.805 129.73 150.805 129.562C150.805 129.394 150.869 129.234 150.983 129.115C151.096 128.996 151.251 128.93 151.411 128.93H179.525C179.686 128.93 179.84 128.996 179.954 129.115C180.068 129.234 180.132 129.394 180.132 129.562C180.132 129.73 180.068 129.891 179.954 130.009C179.84 130.128 179.686 130.194 179.525 130.194Z" fill="#63E9FF"/>
<path d="M193.757 132.78H151.411C151.251 132.78 151.096 132.714 150.983 132.595C150.869 132.477 150.805 132.316 150.805 132.148C150.805 131.98 150.869 131.82 150.983 131.701C151.096 131.582 151.251 131.516 151.411 131.516H193.757C193.918 131.516 194.072 131.582 194.186 131.701C194.299 131.82 194.363 131.98 194.363 132.148C194.363 132.316 194.299 132.477 194.186 132.595C194.072 132.714 193.918 132.78 193.757 132.78Z" fill="#E6E6E6"/>
<path d="M102.762 62.2731C106.802 62.2731 110.077 58.8572 110.077 54.6435C110.077 50.4298 106.802 47.0139 102.762 47.0139C98.7213 47.0139 95.446 50.4298 95.446 54.6435C95.446 58.8572 98.7213 62.2731 102.762 62.2731Z" fill="#FFB9B9"/>
<path d="M97.3827 59.5503C97.2949 59.5507 97.2078 59.536 97.1246 59.5069C96.7981 59.3576 96.5251 59.1046 96.3447 58.7839C95.0852 56.8947 94.477 54.3758 94.5373 51.2971C94.5628 49.9946 94.7041 48.3294 95.5787 47.0019C96.3142 45.8858 97.802 45 99.1885 45.4446C99.1727 45.1554 99.2343 44.8674 99.3663 44.6126C99.4984 44.3578 99.6957 44.1463 99.9363 44.0016C100.461 43.6662 101.094 43.6044 101.651 43.5498C103.06 43.4121 104.515 43.2698 105.941 43.5516C107.54 43.8679 108.847 44.7273 109.528 45.9096L109.542 45.9467L109.68 46.6473C109.699 46.7414 109.737 46.8303 109.791 46.9077C109.846 46.9851 109.916 47.0493 109.997 47.0957C110.078 47.1421 110.167 47.1698 110.259 47.1767C110.351 47.1837 110.443 47.1697 110.529 47.1359C110.624 47.0989 110.725 47.0882 110.825 47.1048C110.924 47.1214 111.018 47.1647 111.096 47.2305C111.175 47.2963 111.235 47.3822 111.272 47.4799C111.309 47.5776 111.321 47.6836 111.306 47.7875L111.268 48.0661L111.67 47.9877C111.77 47.9681 111.874 47.9767 111.971 48.0126C112.067 48.0485 112.152 48.1103 112.218 48.1919C112.284 48.2735 112.329 48.3719 112.346 48.477C112.364 48.5822 112.355 48.6903 112.319 48.7905L112.205 49.1109C112.289 49.1115 112.371 49.1298 112.447 49.1648C112.523 49.1997 112.592 49.2506 112.648 49.3143C112.73 49.4055 112.781 49.5214 112.795 49.6452C112.808 49.769 112.784 49.8941 112.724 50.0022C112.275 50.8037 111.637 51.4728 110.871 51.9463C110.453 52.2089 109.995 52.3966 109.517 52.5017C106.416 53.1996 103.219 53.2999 100.083 52.7975C100.269 53.4426 100.34 54.1174 100.294 54.7892C100.193 55.6291 99.7206 56.3222 99.0891 56.5549C98.9454 56.6037 98.7982 56.6407 98.6489 56.6657C98.5062 56.6889 98.3656 56.7245 98.2286 56.7722C98.0255 56.85 97.8457 56.9823 97.7073 57.1557C97.5689 57.329 97.4768 57.5374 97.4402 57.7598C97.4037 57.9822 97.4241 58.2107 97.4992 58.4222C97.5744 58.6338 97.7018 58.8209 97.8684 58.9647L98.1798 58.6263L98.0785 59.0566C98.0574 59.1403 98.0196 59.2185 97.9676 59.286C97.9156 59.3535 97.8506 59.4089 97.7767 59.4485C97.6555 59.5159 97.5201 59.5509 97.3827 59.5503Z" fill="#2F2E41"/>
<path d="M199.151 174.752L199.447 167.811C202.532 166.091 205.974 165.182 209.472 165.164C204.657 169.27 205.259 177.184 201.995 182.705C200.964 184.419 199.576 185.869 197.935 186.947C196.294 188.026 194.441 188.706 192.514 188.936L188.484 191.509C187.931 188.294 188.053 184.993 188.842 181.832C189.63 178.671 191.066 175.726 193.051 173.2C194.178 171.794 195.47 170.542 196.897 169.473C197.862 172.127 199.151 174.752 199.151 174.752Z" fill="#F2F2F2"/>
<path d="M228 191.679C228 191.721 227.992 191.763 227.977 191.802C227.961 191.841 227.939 191.876 227.91 191.906C227.881 191.936 227.847 191.96 227.81 191.976C227.773 191.992 227.732 192 227.692 192H4.30792C4.22626 192 4.14794 191.966 4.09019 191.906C4.03245 191.846 4 191.764 4 191.679C4 191.594 4.03245 191.512 4.09019 191.452C4.14794 191.392 4.22626 191.358 4.30792 191.358H227.692C227.733 191.358 227.773 191.366 227.81 191.382C227.847 191.398 227.881 191.422 227.91 191.452C227.939 191.481 227.961 191.517 227.977 191.556C227.992 191.595 228 191.637 228 191.679Z" fill="#CCCCCC"/>
</g>
<defs>
<filter id="filter0_d_1_68" x="0" y="0" width="232" height="200" filterUnits="userSpaceOnUse" color-interpolation-filters="sRGB">
<feFlood flood-opacity="0" result="BackgroundImageFix"/>
<feColorMatrix in="SourceAlpha" type="matrix" values="0 0 0 0 0 0 0 0 0 0 0 0 0 0 0 0 0 0 127 0" result="hardAlpha"/>
<feOffset dy="4"/>
<feGaussianBlur stdDeviation="2"/>
<feComposite in2="hardAlpha" operator="out"/>
<feColorMatrix type="matrix" values="0 0 0 0 0 0 0 0 0 0 0 0 0 0 0 0 0 0 0.25 0"/>
<feBlend mode="normal" in2="BackgroundImageFix" result="effect1_dropShadow_1_68"/>
<feBlend mode="normal" in="SourceGraphic" in2="effect1_dropShadow_1_68" result="shape"/>
</filter>
<clipPath id="clip0_1_68">
<rect width="224" height="192" fill="white" transform="translate(4)"/>
</clipPath>
</defs>
</svg>
